HIERARCHY
ROOT Pelvis
{
	OFFSET 0.000000 0.000000 0.000000
	CHANNELS 6 Xposition Yposition Zposition Zrotation Yrotation Xrotation 
	JOINT Left_hip
	{
		OFFSET 0.069463 -0.088608 -0.009542
		CHANNELS 3 Zrotation Yrotation Xrotation
		JOINT Left_knee
		{
			OFFSET 0.030639 -0.359740 -0.005288
			CHANNELS 3 Zrotation Yrotation Xrotation
			JOINT Left_ankle
			{
				OFFSET -0.011068 -0.376034 -0.042462
				CHANNELS 3 Zrotation Yrotation Xrotation
				JOINT Left_foot
				{
					OFFSET 0.023192 -0.053321 0.111332
					CHANNELS 3 Zrotation Yrotation Xrotation
					End Site
					{
						OFFSET 0.000000 0.000000 0.000000
					}
				}
			}
		}
	}
	JOINT Right_hip
	{
		OFFSET -0.067438 -0.088025 -0.006263
		CHANNELS 3 Zrotation Yrotation Xrotation
		JOINT Right_knee
		{
			OFFSET -0.035962 -0.366229 -0.008063
			CHANNELS 3 Zrotation Yrotation Xrotation
			JOINT Right_ankle
			{
				OFFSET 0.013608 -0.375719 -0.040481
				CHANNELS 3 Zrotation Yrotation Xrotation
				JOINT Right_foot
				{
					OFFSET -0.021034 -0.045527 0.114617
					CHANNELS 3 Zrotation Yrotation Xrotation
					End Site
					{
						OFFSET 0.000000 0.000000 0.000000
					}
				}
			}
		}
	}
	JOINT Spine1
	{
		OFFSET -0.002610 0.101823 -0.019986
		CHANNELS 3 Zrotation Yrotation Xrotation
		JOINT Spine2
		{
			OFFSET 0.004114 0.128714 -0.000938
			CHANNELS 3 Zrotation Yrotation Xrotation
			JOINT Spine3
			{
				OFFSET 0.002191 0.048470 0.027684
				CHANNELS 3 Zrotation Yrotation Xrotation
				JOINT Neck
				{
					OFFSET -0.002856 0.198873 -0.044022
					CHANNELS 3 Zrotation Yrotation Xrotation
					JOINT Head
					{
						OFFSET 0.002981 0.062960 0.049860
						CHANNELS 3 Zrotation Yrotation Xrotation
						End Site
						{
							OFFSET 0.000000 0.000000 0.000000
						}
					}
				}
				JOINT Left_collar
				{
					OFFSET 0.073708 0.112550 -0.033440
					CHANNELS 3 Zrotation Yrotation Xrotation
					JOINT Left_shoulder
					{
						OFFSET 0.083291 0.030786 -0.008013
						CHANNELS 3 Zrotation Yrotation Xrotation
						JOINT Left_elbow
						{
							OFFSET 0.245601 -0.011792 -0.027873
							CHANNELS 3 Zrotation Yrotation Xrotation
							JOINT Left_wrist
							{
								OFFSET 0.232258 0.008622 -0.000487
								CHANNELS 3 Zrotation Yrotation Xrotation
								JOINT Left_palm
								{
									OFFSET 0.077300 -0.009457 -0.012851
									CHANNELS 3 Zrotation Yrotation Xrotation
									End Site
									{
										OFFSET 0.000000 0.000000 0.000000
									}
								}
							}
						}
					}
				}
				JOINT Right_collar
				{
					OFFSET -0.075339 0.110574 -0.037874
					CHANNELS 3 Zrotation Yrotation Xrotation
					JOINT Right_shoulder
					{
						OFFSET -0.086522 0.031207 -0.009986
						CHANNELS 3 Zrotation Yrotation Xrotation
						JOINT Right_elbow
						{
							OFFSET -0.237313 -0.011478 -0.019859
							CHANNELS 3 Zrotation Yrotation Xrotation
							JOINT Right_wrist
							{
								OFFSET -0.237599 0.007976 -0.003742
								CHANNELS 3 Zrotation Yrotation Xrotation
								JOINT Right_palm
								{
									OFFSET -0.076920 -0.006943 -0.009920
									CHANNELS 3 Zrotation Yrotation Xrotation
									End Site
									{
										OFFSET 0.000000 0.000000 0.000000
									}
								}
							}
						}
					}
				}
			}
		}
	}
}
MOTION
Frames: 13
Frame Time: 0.100000
0.000000 0.000000 0.000000 157.790764 66.567689 -41.318573 2.666500 4.617514 17.484192 0.397809 -13.456391 0.061652 4.466932 4.025764 -5.533749 -10.283285 9.928664 -2.769342 -3.055672 -6.082586 21.503850 -1.116043 -1.718608 -1.701066 -8.862589 -8.711551 -8.235227 14.838922 -4.813009 11.678361 0.986018 0.600078 7.377127 0.351197 -4.796101 8.589545 -0.980994 -3.369533 -0.490041 -3.609877 -21.571079 17.736012 -1.666752 -23.138205 5.081220 -32.161908 0.683053 7.905577 -50.993952 -8.271821 5.782278 4.364819 -16.175180 9.157164 -14.553971 4.852226 -5.907739 -6.683935 -2.562156 -7.519757 32.508361 5.461972 4.438418 52.763747 2.992156 9.444365 -9.658664 16.999335 -4.780684 8.540926 -4.585732 -3.309300 9.734978 8.623574 -1.646835 
-0.005298 -0.000295 0.002990 155.472892 68.435003 -43.436319 2.521802 4.076328 17.963014 0.620712 -14.377778 -0.634742 4.186710 3.710493 -5.664051 -10.111739 9.660796 -2.608701 -3.108791 -6.497025 22.310528 -1.147491 -2.457842 -1.920121 -8.866770 -9.411616 -8.331348 14.837617 -4.722787 11.727978 0.830290 0.915811 7.164765 0.391677 -4.522335 8.522110 -0.832809 -3.116369 -0.561494 -2.853546 -21.975633 16.249544 -0.885553 -23.479591 4.240917 -32.017401 1.026153 7.887543 -51.043099 -8.014243 6.263992 4.059738 -18.894154 9.961314 -14.494393 3.977435 -6.775018 -6.351938 -2.499267 -6.950192 32.633545 5.547190 4.497975 52.748199 2.595051 9.299941 -9.428753 16.312991 -4.639276 8.685005 -4.570837 -3.211043 9.271571 8.498088 -1.439090 
-0.010380 0.001455 0.008083 154.901245 68.957847 -43.685805 2.910022 4.103304 17.703904 0.330472 -14.550928 -0.204158 4.553009 3.439284 -6.103032 -10.607345 9.564254 -2.349395 -3.002591 -6.945990 22.356725 -1.150247 -2.482076 -1.925747 -9.327500 -9.352999 -8.688868 15.517764 -5.220099 11.824078 0.510222 1.246678 6.710082 0.478810 -4.457388 8.302434 -0.705360 -2.999883 -0.743913 -2.528712 -21.542440 15.960824 -0.681505 -23.185544 3.875414 -31.840202 0.588118 8.008689 -50.728001 -7.689990 6.878390 2.927682 -18.913411 12.502711 -14.595819 4.160843 -5.492316 -6.743265 -2.566990 -7.556963 32.770944 5.776227 4.685597 53.012722 2.666542 9.339078 -9.153077 16.142150 -3.547759 8.851347 -4.520376 -2.913995 9.537615 8.612926 -1.738339 
-0.015271 0.000040 0.014179 155.661156 69.040984 -42.855104 3.306125 4.442339 18.190388 0.067409 -14.759103 -0.489565 4.077790 3.031734 -6.161012 -10.211941 9.385212 -2.524084 -3.206292 -7.087806 22.478395 -1.136551 -2.418139 -1.546228 -8.954182 -9.302865 -9.077032 15.021452 -5.141706 11.229486 0.356143 1.137133 6.088986 0.352742 -4.552160 8.178855 -0.701621 -3.125298 -0.726334 -2.572117 -20.379839 15.090345 -0.680482 -22.175134 2.959811 -31.311063 0.650091 7.783701 -50.897714 -7.364476 6.889885 2.661746 -18.967198 13.517412 -14.095134 4.036585 -4.943282 -6.930036 -2.562307 -7.810152 32.298992 5.303418 4.443437 53.534485 2.249709 9.603099 -9.225056 17.806334 -2.546124 8.529111 -4.183795 -3.022679 9.694242 8.610017 -1.863185 
-0.019216 -0.003016 0.019985 155.831561 69.666360 -42.907766 3.314570 4.731668 18.545644 0.035049 -15.151717 -0.069347 4.003779 2.631342 -6.358422 -10.417731 9.195622 -2.828135 -3.500480 -7.311524 22.698562 -1.239726 -2.700227 -0.529150 -9.009287 -9.313073 -9.677785 15.207422 -5.511444 10.724779 0.262105 1.113861 5.922602 0.158996 -4.550086 8.028866 -0.796448 -3.146273 -0.698337 -2.576004 -19.017161 14.197655 -0.771998 -20.797468 1.759197 -30.838487 0.822018 7.537170 -50.579815 -6.949362 7.195618 2.061395 -20.632812 15.965391 -13.646268 3.945722 -3.721432 -7.395651 -2.626582 -8.144730 31.914396 4.493482 4.275495 53.790775 1.367964 9.212471 -10.276053 18.779638 -2.654391 7.775436 -4.033060 -3.141812 10.050928 8.710191 -2.141236 
-0.025162 -0.003966 0.028382 154.782533 70.733206 -44.948054 3.535620 4.722901 20.077644 0.294851 -15.804417 -0.005192 4.004835 2.309185 -6.748420 -10.517042 9.453026 -2.711233 -3.773859 -7.780245 24.885718 -1.039208 -2.896203 -1.019328 -9.358351 -9.854034 -9.890474 15.681483 -5.155257 11.064291 0.245089 1.198081 4.915144 0.065006 -4.561604 8.916536 -0.714120 -3.113480 -0.796076 -3.445786 -15.694361 16.372859 -3.046330 -17.445923 3.203468 -31.097456 0.361329 7.986196 -50.023841 -6.649772 7.035680 1.727658 -20.831929 16.007487 -14.095222 4.043394 -4.576833 -7.632155 -2.824290 -8.303256 32.272811 4.990686 4.791670 52.005862 3.101410 8.789086 -10.200701 19.757653 -4.721156 7.866979 -4.249887 -4.715415 10.668404 8.763802 -2.269223 
-0.020847 -0.004976 0.033400 157.681609 69.723375 -41.030599 3.040511 4.649703 17.359111 0.271517 -15.126339 2.262964 3.124282 2.372179 -7.115931 -7.772899 10.792989 -3.460851 -3.440348 -7.574397 23.169318 -1.004738 -2.864909 -0.955691 -8.186143 -9.595557 -10.446819 13.222638 -5.067186 9.744752 0.847989 1.571027 5.418425 -0.540068 -4.416154 8.526856 -0.595527 -2.766955 -1.340460 -2.924316 -13.657331 14.659816 -2.577617 -14.965414 0.946309 -30.810524 -0.284726 7.152618 -50.454277 -4.029055 6.733333 1.439343 -23.534029 15.181124 -10.677850 4.243059 -3.314368 -9.631523 -3.339304 -10.819482 29.147549 6.258354 3.628455 53.850978 5.389391 12.138521 -14.600874 44.946117 -4.152388 4.686195 -1.002814 -8.088241 12.166822 9.311510 -2.933965 
-0.012939 -0.005572 0.035661 157.702052 69.752962 -47.131463 3.888343 5.874831 23.971589 2.339894 -16.804721 1.493743 -5.550414 1.350289 -6.556317 1.284051 13.970055 -3.842927 -3.565486 -7.339497 31.663343 -1.326987 -4.401690 -4.884312 -3.408758 -8.441121 -6.011533 12.783087 -8.349588 0.966189 1.720319 3.352747 13.244998 -0.302120 -5.607892 12.730991 0.649509 -1.844882 -1.471426 -1.268725 -15.183402 7.903067 0.755216 -18.740663 -7.220029 -27.771427 -6.744546 7.144831 -54.534267 -5.104364 6.803666 1.225874 -21.767364 10.963107 -4.561313 -3.167893 -1.372827 -6.982327 -2.149084 -12.321739 20.995755 13.168679 -0.453293 59.139757 7.537356 18.402328 -97.732053 73.554347 -80.973436 -7.930058 4.767150 -21.270874 12.123935 9.346826 -3.760323 
-0.007251 -0.006594 0.038169 157.839472 70.988968 -45.756724 3.976877 6.277300 22.619045 2.327900 -16.185981 0.806281 -6.942975 -0.825183 -5.913667 3.500598 15.903504 -3.039998 -3.120537 -6.856244 30.118461 -1.379519 -5.795131 -4.669011 -4.704427 -7.703851 -5.996555 14.263254 -10.522091 0.569795 1.782886 3.760958 13.578018 -0.879057 -5.858520 12.870263 0.282011 -1.345560 -2.580195 1.423236 -17.883290 7.023621 2.128487 -21.647083 -9.401937 -26.288342 -9.057035 6.979097 -55.693419 -3.206629 6.189377 1.890394 -21.644154 9.644306 -5.048591 -3.641412 -1.546482 -8.034140 -2.014154 -14.951589 14.843814 18.347103 -4.508854 61.776651 17.423618 21.893562 -153.103572 57.820231 -130.413795 -10.252673 6.440045 -25.748075 12.242987 9.669541 -3.052374 
-0.002318 -0.007209 0.041982 156.303493 72.435049 -46.526848 4.054949 6.233578 21.267341 2.255962 -16.087948 1.239981 -7.697757 -2.055825 -5.779697 4.443803 16.746357 -2.497108 -2.601765 -6.713363 29.110334 -1.370873 -6.975433 -4.189186 -6.152090 -7.377058 -6.287225 16.091586 -12.140762 0.876782 1.717738 3.936773 13.977244 -1.355269 -5.715948 12.524041 -0.050822 -0.944611 -3.245669 2.646079 -21.503045 6.872801 2.712435 -25.590302 -9.602549 -24.995915 -10.032657 6.629237 -56.378344 -2.423595 6.114679 2.556416 -21.433676 9.293007 -6.782277 -3.990864 -2.139424 -7.640939 -1.266760 -15.857684 10.704208 22.169880 -7.705785 63.210267 25.240658 23.637935 -159.202614 49.751735 -135.036950 -10.123006 6.712250 -28.524023 11.254441 9.297655 -2.052742 
0.003081 -0.005613 0.046793 153.685888 73.264788 -49.167961 3.751280 5.242222 18.978052 2.219781 -16.469673 5.292441 -7.110986 -1.929423 -7.099270 4.208309 16.841233 -2.220704 -1.760415 -7.002045 28.994351 -1.348219 -7.666124 -3.760497 -7.273771 -7.504965 -6.765177 17.360157 -13.157838 1.201933 1.691521 4.448993 15.004613 -1.327662 -5.537273 12.303898 0.043959 -0.569411 -3.337313 2.613505 -22.622211 6.585137 3.026637 -26.834021 -10.070918 -24.776383 -10.533082 6.617642 -56.362218 -2.115706 6.398224 2.863421 -22.931254 9.318613 -7.437357 -4.184602 -3.402080 -7.267868 -0.958452 -15.392963 10.112882 23.741438 -8.177525 63.666717 26.957899 24.077582 -160.177144 48.094202 -135.700986 -9.582183 6.907816 -29.811970 10.757605 9.189513 -1.565305 
0.013143 0.000105 0.048067 147.925023 74.595686 -54.891215 2.743468 3.344917 12.142069 0.756391 -16.064826 17.208644 -5.613421 -1.849279 -8.343357 2.608908 17.346658 -3.699805 -0.968400 -8.053092 28.614100 -1.160316 -8.799438 -3.089136 -8.610565 -7.747311 -7.441392 18.323265 -14.100754 1.153379 2.300837 5.217399 17.411591 -1.173613 -5.582797 10.944496 0.349905 -0.260017 -3.024531 1.987898 -20.938995 6.426993 2.662105 -24.383618 -10.179508 -24.528596 -11.122707 6.404837 -56.745044 -2.835629 6.745941 2.924306 -24.115388 10.283349 -7.472306 -4.499738 -4.343873 -6.648506 -0.709535 -13.920456 10.003836 23.947206 -7.936884 64.554986 26.436379 24.518924 -160.755093 48.812840 -136.083173 -9.223771 7.088665 -30.811177 10.219641 9.141562 -0.777212 
0.024170 0.005598 0.043639 134.147405 77.923872 -68.225014 2.287538 2.307344 2.472501 -1.886750 -11.999338 30.879000 -5.708827 -3.151281 -5.973460 0.580088 18.870876 -7.103791 -1.354671 -9.437820 28.147889 -0.759719 -11.048240 -2.549957 -9.970953 -8.263688 -7.348046 18.851810 -14.655955 0.298777 3.708167 5.831462 21.092126 -1.366937 -5.581529 9.207933 0.580567 -0.013507 -3.002525 0.766587 -20.339713 5.921161 2.134379 -21.967765 -9.962797 -24.254485 -11.942978 6.003511 -57.832135 -4.635924 5.999772 4.756489 -24.788560 10.899895 -8.151291 -5.207628 -2.433028 -5.344894 -0.197796 -12.512639 9.021629 24.790776 -7.875315 64.846313 26.807572 24.350979 -161.614052 49.249614 -136.278312 -9.208456 7.564408 -29.828040 9.059206 8.789670 0.553542 
